<svg width="109" height="37" viewBox="0 0 109 37" fill="none" xmlns="http://www.w3.org/2000/svg">
<path d="M30.12 1.296V36H26.808C26.296 36 25.864 35.92 25.512 35.76C25.176 35.584 24.848 35.296 24.528 34.896L6.408 11.76C6.504 12.816 6.552 13.792 6.552 14.688V36H0.864V1.296H4.248C4.52 1.296 4.752 1.312 4.944 1.344C5.152 1.36 5.328 1.408 5.472 1.488C5.632 1.552 5.784 1.656 5.928 1.8C6.072 1.928 6.232 2.104 6.408 2.328L24.6 25.56C24.552 25 24.512 24.448 24.48 23.904C24.448 23.36 24.432 22.856 24.432 22.392V1.296H30.12ZM49.311 25.488C47.599 25.568 46.159 25.72 44.991 25.944C43.823 26.152 42.887 26.424 42.183 26.76C41.479 27.096 40.975 27.488 40.671 27.936C40.367 28.384 40.215 28.872 40.215 29.4C40.215 30.44 40.519 31.184 41.127 31.632C41.751 32.08 42.559 32.304 43.551 32.304C44.767 32.304 45.815 32.088 46.695 31.656C47.591 31.208 48.463 30.536 49.311 29.64V25.488ZM35.727 14.808C38.559 12.216 41.967 10.92 45.951 10.92C47.391 10.92 48.679 11.16 49.815 11.64C50.951 12.104 51.911 12.76 52.695 13.608C53.479 14.44 54.071 15.44 54.471 16.608C54.887 17.776 55.095 19.056 55.095 20.448V36H52.407C51.847 36 51.415 35.92 51.111 35.76C50.807 35.584 50.567 35.24 50.391 34.728L49.863 32.952C49.239 33.512 48.631 34.008 48.039 34.44C47.447 34.856 46.831 35.208 46.191 35.496C45.551 35.784 44.863 36 44.127 36.144C43.407 36.304 42.607 36.384 41.727 36.384C40.687 36.384 39.727 36.248 38.847 35.976C37.967 35.688 37.207 35.264 36.567 34.704C35.927 34.144 35.431 33.448 35.079 32.616C34.727 31.784 34.551 30.816 34.551 29.712C34.551 29.088 34.655 28.472 34.863 27.864C35.071 27.24 35.407 26.648 35.871 26.088C36.351 25.528 36.967 25 37.719 24.504C38.471 24.008 39.391 23.576 40.479 23.208C41.583 22.84 42.863 22.544 44.319 22.32C45.775 22.08 47.439 21.936 49.311 21.888V20.448C49.311 18.8 48.959 17.584 48.255 16.8C47.551 16 46.535 15.6 45.207 15.6C44.247 15.6 43.447 15.712 42.807 15.936C42.183 16.16 41.631 16.416 41.151 16.704C40.671 16.976 40.231 17.224 39.831 17.448C39.447 17.672 39.015 17.784 38.535 17.784C38.119 17.784 37.767 17.68 37.479 17.472C37.191 17.248 36.959 16.992 36.783 16.704L35.727 14.808ZM68.5579 36.384C66.4139 36.384 64.7659 35.784 63.6139 34.584C62.4779 33.368 61.9099 31.696 61.9099 29.568V15.816H59.3899C59.0699 15.816 58.7979 15.712 58.5739 15.504C58.3499 15.296 58.2379 14.984 58.2379 14.568V12.216L62.1979 11.568L63.4459 4.848C63.5259 4.528 63.6779 4.28 63.9019 4.104C64.1259 3.928 64.4139 3.84 64.7659 3.84H67.8379V11.592H74.4139V15.816H67.8379V29.16C67.8379 29.928 68.0219 30.528 68.3899 30.96C68.7739 31.392 69.2939 31.608 69.9499 31.608C70.3179 31.608 70.6219 31.568 70.8619 31.488C71.1179 31.392 71.3339 31.296 71.5099 31.2C71.7019 31.104 71.8699 31.016 72.0139 30.936C72.1579 30.84 72.3019 30.792 72.4459 30.792C72.6219 30.792 72.7659 30.84 72.8779 30.936C72.9899 31.016 73.1099 31.144 73.2379 31.32L75.0139 34.2C74.1499 34.92 73.1579 35.464 72.0379 35.832C70.9179 36.2 69.7579 36.384 68.5579 36.384ZM91.2173 25.488C89.5053 25.568 88.0653 25.72 86.8973 25.944C85.7293 26.152 84.7933 26.424 84.0893 26.76C83.3853 27.096 82.8813 27.488 82.5773 27.936C82.2733 28.384 82.1213 28.872 82.1213 29.4C82.1213 30.44 82.4253 31.184 83.0333 31.632C83.6573 32.08 84.4653 32.304 85.4573 32.304C86.6733 32.304 87.7213 32.088 88.6013 31.656C89.4973 31.208 90.3693 30.536 91.2173 29.64V25.488ZM77.6333 14.808C80.4653 12.216 83.8733 10.92 87.8573 10.92C89.2973 10.92 90.5853 11.16 91.7213 11.64C92.8573 12.104 93.8173 12.76 94.6013 13.608C95.3853 14.44 95.9773 15.44 96.3773 16.608C96.7933 17.776 97.0013 19.056 97.0013 20.448V36H94.3133C93.7533 36 93.3213 35.92 93.0173 35.76C92.7133 35.584 92.4733 35.24 92.2973 34.728L91.7693 32.952C91.1453 33.512 90.5373 34.008 89.9453 34.44C89.3533 34.856 88.7373 35.208 88.0973 35.496C87.4573 35.784 86.7693 36 86.0333 36.144C85.3133 36.304 84.5133 36.384 83.6333 36.384C82.5933 36.384 81.6333 36.248 80.7533 35.976C79.8733 35.688 79.1133 35.264 78.4733 34.704C77.8333 34.144 77.3373 33.448 76.9853 32.616C76.6333 31.784 76.4573 30.816 76.4573 29.712C76.4573 29.088 76.5613 28.472 76.7693 27.864C76.9773 27.24 77.3133 26.648 77.7773 26.088C78.2573 25.528 78.8733 25 79.6253 24.504C80.3773 24.008 81.2973 23.576 82.3853 23.208C83.4893 22.84 84.7693 22.544 86.2253 22.32C87.6813 22.08 89.3453 21.936 91.2173 21.888V20.448C91.2173 18.8 90.8653 17.584 90.1613 16.8C89.4573 16 88.4413 15.6 87.1133 15.6C86.1533 15.6 85.3533 15.712 84.7133 15.936C84.0893 16.16 83.5373 16.416 83.0573 16.704C82.5773 16.976 82.1373 17.224 81.7373 17.448C81.3533 17.672 80.9213 17.784 80.4413 17.784C80.0253 17.784 79.6733 17.68 79.3853 17.472C79.0973 17.248 78.8653 16.992 78.6893 16.704L77.6333 14.808ZM108.584 0.335999V36H102.656V0.335999H108.584Z" fill="#F7F7F7"/>
</svg>
