<svg width="129" height="34" viewBox="0 0 129 34" fill="none" xmlns="http://www.w3.org/2000/svg">
<path fill-rule="evenodd" clip-rule="evenodd" d="M113.664 13.853C113.664 13.8606 113.664 13.8644 113.664 13.8682C113.661 13.8682 113.657 13.8682 113.653 13.8682C113.638 13.8682 113.627 13.8644 113.616 13.8644C113.631 13.8606 113.649 13.8568 113.664 13.853ZM114.748 14.7328C114.998 15.3507 114.357 15.4705 114.543 16.0547C119.248 16.5452 124.039 17.009 128.724 18.2558C127.879 18.6527 126.985 19.1317 126.139 18.8437C124.727 18.3647 123.264 18.301 121.837 18.1812C118.838 17.9302 115.892 17.1441 112.86 17.2562C112.632 17.2638 112.409 17.2562 111.764 17.2562C112.696 17.6046 113.455 17.4996 113.78 18.4583C111.235 18.694 108.822 18.0238 106.289 17.8518C106.21 18.1583 106.128 18.4915 106.039 18.8552C113.552 19.2368 121.029 19.735 128.74 21.4042C127.257 22.2693 126.039 21.9698 124.907 21.8463C122.523 21.5915 120.161 21.1537 117.788 20.8206C117.452 20.7716 116.946 20.7416 116.774 20.9327C115.996 21.8049 115.258 21.2773 114.312 21.1423C114.823 20.618 115.191 21.408 115.672 20.7269C113.735 20.1613 111.887 21.034 110.058 20.7231C108.222 20.4122 106.329 20.4122 104.218 20.2587C104.918 21.12 105.838 20.9926 106.396 21.0002C108.158 21.0187 109.883 21.4156 111.642 21.3633C113.482 21.3111 115.292 21.629 117.11 21.8686C118.268 22.0183 119.438 21.831 120.593 21.6513C120.98 21.5915 120.764 21.8348 120.823 21.996C121.006 22.505 121.587 22.4604 122.079 22.4489C123.878 22.4075 125.614 22.7821 127.339 23.2427C127.588 23.3102 127.898 23.2541 127.913 23.6543C127.931 24.0474 127.618 23.9951 127.388 24.1111C126.043 24.7736 124.75 24.0103 123.435 23.9875C122.697 23.9766 121.934 23.1904 121.304 24.2537C121.189 24.4481 120.835 24.2945 120.563 24.2199C118.984 23.7855 117.329 23.9205 115.724 23.3924C114.923 23.1305 113.765 23.4675 112.759 23.6619C111.366 23.9352 109.95 23.2841 108.512 23.1643C107.294 23.063 106.009 22.8872 104.802 22.8044C102.295 22.6324 99.7847 22.1457 96.9686 22.5649C98.697 23.1828 100.291 23.2204 101.803 23.2204C105.242 23.2242 108.564 24.4704 112.022 24.0925C114.577 25.8407 117.632 24.9348 120.391 25.6648C122.113 26.1178 123.956 26.0993 125.741 26.3089C125.89 26.3274 126.02 26.47 126.124 26.7842C119.077 25.6126 111.943 26.0057 104.69 25.1634C106.412 26.3089 108.501 25.0099 110.092 26.6682C107.254 27.7277 104.523 26.163 101.8 26.6236C102.802 27.3907 104.322 27.2186 105.056 28.4131C105.208 28.6597 105.1 29.012 104.646 29.1132C105.477 29.6446 105.867 27.9748 106.665 28.9107C106.706 28.6075 106.743 28.3418 106.777 28.0832C107.067 27.8964 107.473 28.5253 107.328 28.896C107.298 28.9706 107.332 29.0719 107.339 29.1579C113.925 29.3751 120.455 30.0937 127.145 31.1086C126.572 31.6927 126.147 31.7825 125.678 31.7335C123.193 31.4755 120.708 31.2207 118.223 30.955C117.113 30.8353 115.977 30.7492 114.882 30.7117C112.234 30.6218 109.611 30.3295 106.974 30.146C103.822 29.9255 100.649 30.0899 97.4825 30.1014C97.0206 30.1014 96.4618 29.9065 96.1413 30.648C101.39 30.8124 106.594 30.9697 111.779 31.273C117.009 31.58 122.295 31.9584 127.372 33.5644C125.826 34.1149 124.255 34.0659 122.772 33.8416C120.924 33.5606 119.055 33.2389 117.218 33.1638C113.172 33.0026 109.142 32.6471 105.096 32.4936C98.8534 32.2578 92.6137 32.3362 86.3745 32.2878C82.56 32.254 78.7455 32.168 74.9385 32.3063C68.6544 32.5311 62.3627 32.4037 56.0818 32.6057C51.4557 32.7522 46.8252 32.6623 42.2022 32.8605C38.2539 33.0287 34.2943 33.1714 30.3531 33.4294C25.7263 33.7327 21.111 33.5155 16.4956 33.6505C15.1474 33.6919 13.8024 33.7626 12.3757 33.5421C12.7071 32.8828 13.2139 32.8082 13.7505 32.8306C16.6933 32.9356 19.6025 32.6286 22.5263 32.3553C23.8751 32.2279 25.3018 32.1081 26.7286 32.4636C27.5851 32.677 28.5987 32.2992 29.5485 32.2241C32.1371 32.0183 34.7264 31.8609 37.3189 31.7036C41.4946 31.4564 45.674 31.0525 49.8503 31.243C52.5505 31.3666 55.2253 30.8951 57.9109 31.1908C58.7306 31.2806 59.4535 30.9028 60.2245 30.6403C58.1605 30.6403 56.097 30.6403 54.033 30.6403C50.6733 30.6403 47.313 30.5766 43.9533 30.6627C41.1296 30.734 38.3059 30.8238 35.4823 31.0862C34.5699 31.1684 33.579 31.1162 32.6142 31.1608C29.0638 31.3182 25.5103 31.4717 21.9605 31.4194C20.0719 31.3927 18.2093 31.3628 16.3543 31.7297C15.5535 31.8871 14.9086 31.0111 14.0672 31.3965C14.1376 31.6361 14.2085 31.8757 14.3092 32.2165C13.6573 32.2165 12.8971 32.4522 12.5544 32.1756C11.0681 30.9512 9.23907 31.3443 7.59305 30.9398C6.98933 30.7939 6.25945 30.9028 6.08402 30.1389C5.92375 29.405 6.75109 29.3375 7.03751 28.6897C5.55501 27.9264 5.3915 25.942 4.0579 24.7404C3.52511 24.8226 3.73356 26.2675 2.5938 25.4552C2.7205 26.788 4.16187 27.5856 3.57331 28.9483C2.7725 29.1394 2.40755 28.4991 2.12058 28.001C0.880108 25.8559 -0.0398227 23.4376 0.0013278 21.0563C0.0608877 17.3237 0.0311162 13.5127 1.24181 9.88088C1.32357 9.6299 1.37554 9.35333 1.52119 9.13991C1.84877 8.66409 1.93433 7.84418 2.76871 7.9939C3.53595 8.12892 3.65561 8.81762 3.68539 9.44316C3.71896 10.1917 4.229 10.4351 4.83976 10.8097C5.14189 10.0605 5.01898 9.19599 5.74507 8.75773C5.80463 8.72397 5.86419 8.55574 5.8382 8.52961C4.7358 7.34276 6.27786 7.33133 6.63901 6.73247C5.55502 5.71766 5.22745 4.40015 5.31679 2.89155C4.74664 2.74891 4.22142 2.6667 3.7222 2.91387C3.10061 3.22093 2.97392 2.63295 2.66096 2.37815C2.88783 2.10485 2.9176 1.74935 3.4466 1.65571C6.11759 1.18804 8.77017 0.70514 11.5002 0.558689C18.5299 0.191747 25.559 0.0795961 32.5952 0.00500991C36.805 -0.0401774 40.9769 0.225499 45.1564 0.592442C46.4266 0.705138 47.6449 0.0948356 48.9076 0.330572C51.6863 0.851042 54.4878 0.506427 57.2817 0.584824C59.8292 0.656144 62.3589 0.255442 64.933 0.554876C69.2278 1.05684 73.5676 0.719841 77.8775 0.910934C81.1928 1.05684 84.5228 1.15429 87.8273 1.45754C92.0105 1.84299 96.1971 2.19142 100.384 2.53549C104.299 2.86106 108.267 2.81642 112.119 3.64775C114.614 4.18292 117.169 4.27656 119.658 4.95437C121.088 5.34364 122.545 5.82655 124.027 6.01383C124.761 6.10366 124.336 6.56424 124.549 6.84843C123.148 6.38784 121.699 6.43684 120.317 6.06609C118.794 5.66158 117.289 5.538 115.784 6.30564C114.748 6.82992 113.571 6.44066 112.528 6.27189C108.929 5.68772 105.305 5.37739 101.688 4.94294C97.4229 4.4339 93.1351 4.20143 88.8625 3.80455C85.3501 3.47898 81.8334 3.54268 78.3356 3.27319C74.3126 2.96232 70.2934 3.28462 66.2926 3.0037C64.1246 2.85398 61.9637 2.85017 59.7995 2.78266C58.3061 2.73802 56.8307 3.47899 55.2924 2.93238C55.5009 3.05978 55.7093 3.29932 55.9221 3.29551C59.643 3.2917 63.2751 4.31032 67.0263 4.20143C69.3323 4.13447 71.6752 4.30651 73.9845 4.66202C75.1058 4.83787 76.2158 4.45242 77.4119 4.61357C80.0937 4.96908 82.8432 4.86074 85.5434 5.03277C89.9021 5.30989 94.2787 5.27232 98.6114 5.60932C103.327 5.97626 108.025 6.74717 112.67 7.8518C114.845 8.36846 117.162 8.67171 119.445 8.79529C119.643 8.80673 119.836 8.87369 120.004 9.04246C118.35 9.08003 116.719 9.05008 115.121 8.74684C114.916 9.36803 115.609 9.22593 115.69 9.79486C112.23 10.6932 108.762 9.02014 105.354 9.72354C106.095 10.4765 107.141 10.2516 107.991 10.2631C110.535 10.3077 112.975 10.9556 115.452 11.3296C116.451 11.4799 117.512 11.3111 118.47 11.7864C119.025 12.0673 120.075 11.1837 120.191 12.5241C121.587 12.1424 122.727 13.3478 124.106 13.1681C125.51 12.9808 126.836 13.5051 128.192 13.7447C128.49 13.7969 128.933 13.8829 128.993 14.3288C129.06 14.8602 128.639 14.9914 128.262 15.1596C127.045 15.7024 125.908 14.9277 124.72 14.9277C124.396 14.9277 124.023 14.7927 123.666 14.8041C120.295 14.9125 117.006 14.1225 113.664 13.8682C113.671 14.643 114.692 14.306 114.748 14.7328ZM107.268 13.1159C107.257 13.2356 107.246 13.3516 107.235 13.4676C109.351 13.7071 111.444 14.2238 113.616 13.8644C111.496 13.6173 109.384 13.3663 107.268 13.1159ZM104.404 14.7889C106.229 15.8788 108.118 15.4819 109.935 15.5718C108.155 15.1934 106.37 14.8417 104.404 14.7889Z" fill="#424B35"/>
</svg>
