<svg width="130" height="128" viewBox="0 0 130 128" fill="none" xmlns="http://www.w3.org/2000/svg">
<path fill-rule="evenodd" clip-rule="evenodd" d="M19.2818 13.9338C18.1283 15.5876 16.3945 16.7446 15.0418 18.2226C11.8042 21.7665 8.63421 25.3466 6.51417 29.6718C2.34695 38.1646 0.927455 47.0998 1.75528 56.5922C2.05112 59.9603 2.29868 63.2435 3.30735 66.4602C3.82617 68.1139 4.55743 69.695 5.18511 71.2943C6.53175 74.7411 7.73967 78.5937 10.1801 81.1622C12.97 84.1002 14.2139 87.9828 17.3733 90.5577C15.4947 87.0561 14.8662 82.9856 11.8042 79.981C10.5365 78.7392 9.93872 76.728 9.57617 74.838C10.5365 76.3645 11.5566 77.8184 12.8559 79.4419C13.0244 76.5099 12.0465 74.0262 11.4724 71.5002C10.0713 65.2668 9.5279 58.9305 10.0169 52.6183C10.6208 44.7796 13.049 37.3347 17.1074 30.5925C20.6768 24.6559 25.7377 19.8462 31.1313 15.7087C36.3616 11.6985 42.0808 8.1911 48.4401 5.96188C50.8744 5.10775 53.2534 4.22937 55.7904 3.6963C56.7385 3.49639 58.2361 3.27832 58.0974 1.5761C61.371 2.65438 64.3909 1.41255 67.4529 1.29139C71.4568 1.12783 75.4669 1.24899 79.5314 0.915811C78.571 0.709846 77.6106 0.497828 76.6502 0.291871C78.6799 -0.247264 80.5339 0.0132127 82.4731 0.643214C85.9152 1.76389 89.4846 2.50899 92.9873 3.45399C98.1026 4.83515 102.976 6.92506 107.422 9.72371C109.916 11.2866 112.338 13.2008 114.222 15.7027C116.614 18.8708 119.501 21.6877 121.385 25.2194C124.815 31.6526 127.539 38.3282 128.059 45.7308C128.258 48.5536 128.934 51.3644 128.862 54.1691C128.723 59.4635 129.737 64.655 129.949 69.9192C130.142 74.6139 129.792 79.1753 128.837 83.6702C127.684 89.1404 126.138 94.683 123.009 99.2928C120.702 102.691 118.227 106.181 114.838 108.815C112.254 110.82 109.33 112.433 107.525 115.425C106.661 116.849 105.176 118.041 103.719 118.926C99.099 121.737 94.7386 124.887 89.2125 126.213C84.4351 127.364 79.7184 127.903 74.8813 127.995C69.5483 128.098 64.4988 126.686 59.4142 125.251C50.8314 122.833 43.3853 118.175 36.2343 113.183C32.5867 110.633 29.3492 107.289 26.3355 103.793C23.4912 100.486 20.725 97.0641 17.4875 94.0347C14.9689 91.6844 13.1754 88.4982 11.3398 85.5117C10.6814 84.4334 10.0467 83.1976 9.30403 82.2587C5.27551 77.1702 3.22832 71.1852 1.59813 65.0972C0.528891 61.1113 0.0996175 56.992 0.00919754 52.7335C-0.141795 46.1002 1.592 40.0122 3.31876 33.8394C4.40029 29.9807 6.49574 26.34 8.8449 23.4021C11.5996 19.9612 14.0752 15.8844 18.303 13.746C18.5927 13.6007 18.8166 13.5037 19.2818 13.9338ZM98.9664 8.53034C111.057 15.1393 119.181 25.0982 123.843 37.995C124.508 28.5329 108.28 9.25727 98.9664 8.53034ZM98.0789 107.743C100.893 108.319 106.661 103.14 107.833 97.6517C104.457 100.983 101.98 104.757 98.0789 107.743ZM85.2147 4.52621C88.7779 5.35005 91.8399 7.69436 95.6569 7.45211C92.2929 6.03457 89.0378 4.24755 85.2147 4.52621Z" fill="#A83B24"/>
</svg>
