<svg width="187" height="49" viewBox="0 0 187 49" fill="none" xmlns="http://www.w3.org/2000/svg">
<path fill-rule="evenodd" clip-rule="evenodd" d="M164.002 19.9646C164.002 19.9756 164.002 19.9811 164.002 19.9866C163.996 19.9866 163.991 19.9866 163.986 19.9866C163.964 19.9866 163.948 19.9811 163.932 19.9811C163.954 19.9756 163.98 19.9701 164.002 19.9646ZM165.566 21.2326C165.926 22.1231 165.001 22.2957 165.27 23.1376C172.058 23.8445 178.971 24.513 185.731 26.3098C184.512 26.8818 183.222 27.5722 182.002 27.1572C179.964 26.4667 177.853 26.3749 175.794 26.2023C171.467 25.8406 167.216 24.7076 162.841 24.8692C162.513 24.8802 162.19 24.8692 161.261 24.8692C162.604 25.3714 163.7 25.2199 164.168 26.6017C160.497 26.9414 157.015 25.9755 153.36 25.7276C153.247 26.1693 153.129 26.6495 153 27.1736C163.84 27.7236 174.628 28.4416 185.753 30.8472C183.614 32.0939 181.856 31.6624 180.223 31.4843C176.783 31.1171 173.375 30.4863 169.952 30.0061C169.468 29.9355 168.737 29.8923 168.489 30.1677C167.366 31.4247 166.302 30.6644 164.937 30.4698C165.673 29.7142 166.205 30.8527 166.899 29.8711C164.104 29.0559 161.438 30.3137 158.799 29.8656C156.149 29.4176 153.418 29.4176 150.372 29.1964C151.382 30.4376 152.709 30.254 153.515 30.265C156.058 30.2917 158.547 30.8637 161.083 30.7883C163.739 30.713 166.35 31.1712 168.973 31.5165C170.645 31.7322 172.332 31.4623 173.999 31.2034C174.557 31.1171 174.246 31.4678 174.332 31.7001C174.596 32.4337 175.434 32.3693 176.143 32.3529C178.739 32.2932 181.244 32.833 183.732 33.4968C184.092 33.5941 184.538 33.5133 184.56 34.09C184.587 34.6565 184.135 34.5812 183.803 34.7483C181.862 35.7032 179.997 34.6031 178.099 34.5702C177.035 34.5545 175.934 33.4215 175.025 34.9539C174.859 35.234 174.348 35.0127 173.956 34.9052C171.677 34.2791 169.29 34.4737 166.974 33.7126C165.818 33.3352 164.146 33.8209 162.696 34.101C160.686 34.4949 158.643 33.5565 156.568 33.3839C154.811 33.2379 152.957 32.9845 151.215 32.8652C147.598 32.6173 143.976 31.9158 139.912 32.52C142.406 33.4105 144.706 33.4647 146.888 33.4647C151.849 33.4702 156.643 35.2661 161.632 34.7216C165.318 37.241 169.726 35.9354 173.708 36.9876C176.192 37.6404 178.852 37.6137 181.427 37.9158C181.642 37.9425 181.83 38.148 181.98 38.6007C171.811 36.9122 161.518 37.4787 151.054 36.2649C153.537 37.9158 156.552 36.0437 158.847 38.4336C154.752 39.9605 150.812 37.7055 146.883 38.3693C148.329 39.4748 150.522 39.2269 151.581 40.9483C151.801 41.3037 151.645 41.8114 150.99 41.9573C152.188 42.7231 152.752 40.3167 153.903 41.6654C153.961 41.2284 154.015 40.8455 154.064 40.4728C154.483 40.2037 155.068 41.1099 154.859 41.6442C154.816 41.7517 154.865 41.8977 154.875 42.0216C164.378 42.3347 173.8 43.3704 183.453 44.8329C182.625 45.6748 182.013 45.8043 181.335 45.7336C177.75 45.3617 174.165 44.9945 170.58 44.6117C168.978 44.439 167.339 44.3151 165.759 44.2609C161.938 44.1315 158.154 43.7101 154.349 43.4457C149.801 43.1279 145.222 43.3649 140.654 43.3814C139.987 43.3814 139.181 43.1005 138.719 44.1691C146.292 44.4061 153.8 44.6328 161.282 45.0699C168.828 45.5124 176.455 46.0577 183.781 48.3723C181.55 49.1655 179.282 49.0949 177.143 48.7717C174.477 48.3668 171.779 47.9031 169.129 47.7948C163.292 47.5626 157.477 47.0502 151.64 46.829C142.632 46.4892 133.629 46.6022 124.627 46.5324C119.123 46.4837 113.619 46.3598 108.126 46.5591C99.0588 46.8831 89.9808 46.6995 80.9183 46.9906C74.2434 47.2017 67.5622 47.0722 60.892 47.3578C55.1951 47.6002 49.4819 47.8058 43.7953 48.1777C37.1195 48.6147 30.4602 48.3017 23.8009 48.4963C21.8556 48.5559 19.915 48.6579 17.8564 48.3401C18.3346 47.39 19.0658 47.2825 19.84 47.3146C24.0861 47.4661 28.2837 47.0235 32.5024 46.6297C34.4485 46.4461 36.507 46.2735 38.5656 46.7858C39.8015 47.0934 41.264 46.5489 42.6343 46.4406C46.3695 46.144 50.1054 45.9172 53.846 45.6905C59.8709 45.3343 65.9013 44.7521 71.927 45.0267C75.8231 45.2048 79.6824 44.5253 83.5574 44.9514C84.7402 45.0808 85.7831 44.5363 86.8956 44.1581C83.9175 44.1581 80.9402 44.1581 77.9621 44.1581C73.1145 44.1581 68.2661 44.0663 63.4185 44.1903C59.3443 44.2931 55.2702 44.4226 51.196 44.8007C49.8796 44.9192 48.4499 44.8439 47.0577 44.9082C41.9351 45.135 36.8078 45.3562 31.686 45.2809C28.961 45.2425 26.2735 45.1993 23.597 45.7281C22.4415 45.9549 21.5111 44.6925 20.297 45.248C20.3986 45.5932 20.501 45.9384 20.6463 46.4296C19.7057 46.4296 18.6088 46.7693 18.1143 46.3707C15.9698 44.6062 13.3307 45.1726 10.9557 44.5897C10.0846 44.3794 9.03153 44.5363 8.7784 43.4355C8.54715 42.3779 9.74088 42.2806 10.1542 41.3469C8.01512 40.2468 7.77919 37.3869 5.85499 35.6553C5.08625 35.7738 5.38702 37.8561 3.7425 36.6855C3.92531 38.6062 6.005 39.7557 5.15579 41.7196C4.00033 41.995 3.47376 41.0723 3.0597 40.3543C1.26987 37.263 -0.0574586 33.7777 0.00191584 30.3458C0.0878525 24.9665 0.0448964 19.4742 1.79176 14.2401C1.90972 13.8784 1.98472 13.4798 2.19487 13.1722C2.66752 12.4865 2.79097 11.3049 3.99487 11.5206C5.10189 11.7152 5.27454 12.7077 5.3175 13.6093C5.36594 14.6881 6.10186 15.0388 6.9831 15.5786C7.41904 14.499 7.24169 13.253 8.28934 12.6214C8.37528 12.5728 8.46121 12.3303 8.42371 12.2927C6.8331 10.5822 9.05808 10.5657 9.57917 9.70267C8.01512 8.24015 7.54248 6.3414 7.67139 4.16724C6.84874 3.96167 6.09093 3.84319 5.37062 4.19941C4.47376 4.64193 4.29095 3.79454 3.83939 3.42734C4.16673 3.03347 4.20969 2.52112 4.97297 2.38616C8.82684 1.71218 12.6541 1.01623 16.5932 0.80517C26.736 0.276341 36.8782 0.114712 47.0304 0.00722016C53.1046 -0.0579027 59.124 0.324984 65.1544 0.853813C66.9872 1.01623 68.745 0.136675 70.5669 0.476412C74.5762 1.2265 78.6184 0.72985 82.6496 0.842834C86.3253 0.945619 89.9753 0.368138 93.6893 0.799675C99.8861 1.52309 106.148 1.03742 112.366 1.31282C117.15 1.52309 121.955 1.66354 126.723 2.10057C132.758 2.65607 138.799 3.15822 144.84 3.65409C150.49 4.12329 156.214 4.05895 161.772 5.25706C165.372 6.02833 169.059 6.16328 172.65 7.14012C174.714 7.70112 176.815 8.39708 178.954 8.66699C180.013 8.79645 179.4 9.46023 179.706 9.86979C177.685 9.20601 175.595 9.27663 173.601 8.74231C171.403 8.15934 169.232 7.98124 167.06 9.08754C165.566 9.84312 163.868 9.28213 162.362 9.0389C157.17 8.19701 151.94 7.74977 146.722 7.12365C140.568 6.39004 134.381 6.055 128.216 5.48302C123.148 5.01382 118.074 5.10562 113.027 4.71724C107.223 4.26923 101.424 4.73372 95.651 4.32886C92.5229 4.11309 89.405 4.1076 86.2824 4.0103C84.1277 3.94597 81.9988 5.01383 79.7793 4.22608C80.0801 4.40968 80.3809 4.7549 80.6879 4.74941C86.0566 4.74392 91.2972 6.21193 96.7096 6.05501C100.037 5.9585 103.417 6.20644 106.749 6.7188C108.367 6.97223 109.969 6.41672 111.695 6.64896C115.564 7.16131 119.531 7.00518 123.427 7.25312C129.716 7.65248 136.031 7.59834 142.283 8.08401C149.086 8.61284 155.865 9.72386 162.567 11.3158C165.705 12.0604 169.049 12.4975 172.343 12.6756C172.628 12.692 172.907 12.7886 173.15 13.0318C170.763 13.0859 168.409 13.0428 166.103 12.6057C165.807 13.501 166.807 13.2962 166.925 14.1161C161.932 15.4107 156.929 12.9996 152.011 14.0133C153.08 15.0985 154.59 14.7744 155.816 14.7909C159.487 14.8552 163.007 15.7889 166.582 16.3279C168.022 16.5445 169.553 16.3013 170.935 16.9862C171.736 17.3911 173.252 16.1177 173.418 18.0494C175.434 17.4994 177.078 19.2365 179.067 18.9776C181.093 18.7077 183.006 19.4633 184.963 19.8085C185.393 19.8838 186.033 20.0078 186.119 20.6504C186.216 21.4162 185.608 21.6052 185.065 21.8477C183.308 22.63 181.668 21.5134 179.954 21.5134C179.486 21.5134 178.949 21.3189 178.433 21.3353C173.569 21.4915 168.823 20.353 164.002 19.9866C164.012 21.1031 165.485 20.6174 165.566 21.2326ZM154.773 18.9023C154.757 19.0749 154.741 19.242 154.725 19.4091C157.778 19.7543 160.798 20.4989 163.932 19.9811C160.874 19.6249 157.826 19.2632 154.773 18.9023ZM150.64 21.3134C153.274 22.8842 155.999 22.3122 158.622 22.4416C156.052 21.8963 153.478 21.3895 150.64 21.3134Z" fill="#171E13"/>
</svg>
