<svg width="25" height="25" viewBox="0 0 25 25" fill="none" xmlns="http://www.w3.org/2000/svg">
<path d="M11.0968 0.0892463C5.33516 0.733947 0.700772 5.50474 0.074503 11.307C-0.551766 17.3672 2.83009 22.7827 7.96549 24.8458C8.34125 24.9747 8.71701 24.7168 8.71701 24.2011V22.138C8.71701 22.138 8.216 22.267 7.58973 22.267C5.83618 22.267 5.08465 20.7197 4.9594 19.8171C4.83415 19.3013 4.58364 18.9145 4.20788 18.5277C3.83212 18.3988 3.70686 18.3988 3.70686 18.2698C3.70686 18.0119 4.08262 18.0119 4.20788 18.0119C4.9594 18.0119 5.58567 18.9145 5.83618 19.3013C6.46244 20.3329 7.21397 20.5907 7.58973 20.5907C8.09074 20.5907 8.4665 20.4618 8.71701 20.3329C8.84227 19.4303 9.21803 18.5277 9.96955 18.0119C7.08871 17.3672 4.9594 15.691 4.9594 12.8543C4.9594 11.436 5.58567 10.0176 6.46244 8.98612C6.33719 8.72824 6.21194 8.08354 6.21194 7.18096C6.21194 6.6652 6.21194 5.89156 6.5877 5.11791C6.5877 5.11791 8.34125 5.11792 10.0948 6.79414C10.7211 6.53626 11.5978 6.40732 12.4746 6.40732C13.3514 6.40732 14.2282 6.53626 14.9797 6.79414C16.608 5.11792 18.4868 5.11791 18.4868 5.11791C18.7373 5.89156 18.7373 6.6652 18.7373 7.18096C18.7373 8.21248 18.6121 8.72824 18.4868 8.98612C19.3636 10.0176 19.9898 11.307 19.9898 12.8543C19.9898 15.691 17.8605 17.3672 14.9797 18.0119C15.7312 18.6566 16.2322 19.8171 16.2322 20.9776V24.33C16.2322 24.7168 16.608 25.1036 17.109 24.9747C21.7434 23.0406 25 18.3988 25 12.9833C25 5.24686 18.6121 -0.813335 11.0968 0.0892463Z" fill="#171E13"/>
</svg>
