<svg width="30" height="30" viewBox="0 0 30 30" fill="none" xmlns="http://www.w3.org/2000/svg">
<path d="M27.8571 17.1429H17.1429V27.8571C17.1429 29.0357 16.1786 30 15 30C13.8214 30 12.8571 29.0357 12.8571 27.8571V17.1429H2.14286C0.964286 17.1429 0 16.1786 0 15C0 13.8214 0.964286 12.8571 2.14286 12.8571H12.8571V2.14286C12.8571 0.964286 13.8214 0 15 0C16.1786 0 17.1429 0.964286 17.1429 2.14286V12.8571H27.8571C29.0357 12.8571 30 13.8214 30 15C30 16.1786 29.0357 17.1429 27.8571 17.1429Z" fill="#A83B24"/>
</svg>
