<svg width="20" height="20" viewBox="0 0 20 20" fill="none" xmlns="http://www.w3.org/2000/svg">
<path d="M18.0404 13.6386L15.2125 13.3158C14.5333 13.2378 13.8653 13.4716 13.3866 13.9504L11.338 15.999C8.18723 14.3957 5.60425 11.8239 4.00102 8.66193L6.06073 6.60221C6.53947 6.12347 6.77327 5.45545 6.69534 4.77631L6.37246 1.97064C6.23886 0.846152 5.29251 0 4.15689 0H2.23079C0.972706 0 -0.0738448 1.04656 0.00408987 2.30465C0.594166 11.8127 8.19836 19.4058 17.6953 19.9959C18.9533 20.0738 19.9999 19.0273 19.9999 17.7692V15.8431C20.011 14.7186 19.1649 13.7722 18.0404 13.6386Z" fill="#171E13"/>
</svg>
